<mxfile host="app.diagrams.net" agent="Mozilla/5.0 (Windows NT 10.0; Win64; x64) AppleWebKit/537.36 (KHTML, like Gecko) Chrome/131.0.0.0 Safari/537.36" version="26.0.2">
  <diagram name="PÃ¡gina-1" id="VW1z2ZLzl9S_udgye9aN">
    <mxGraphModel dx="1400" dy="1912" grid="1" gridSize="10" guides="1" tooltips="1" connect="1" arrows="1" fold="1" page="1" pageScale="1" pageWidth="827" pageHeight="1169" math="0" shadow="0">
      <root>
        <mxCell id="0" />
        <mxCell id="1" parent="0" />
        <mxCell id="-XtXaxl_I-R7EX7jPxWP-4" style="edgeStyle=orthogonalEdgeStyle;rounded=0;orthogonalLoop=1;jettySize=auto;html=1;entryX=0;entryY=0.5;entryDx=0;entryDy=0;" parent="1" source="-XtXaxl_I-R7EX7jPxWP-1" target="-XtXaxl_I-R7EX7jPxWP-3" edge="1">
          <mxGeometry relative="1" as="geometry" />
        </mxCell>
        <mxCell id="mCd2HoaMfWd7tNMFFsN8-2" style="edgeStyle=orthogonalEdgeStyle;rounded=0;orthogonalLoop=1;jettySize=auto;html=1;exitX=1;exitY=0.5;exitDx=0;exitDy=0;entryX=0;entryY=0.5;entryDx=0;entryDy=0;" edge="1" parent="1" source="-XtXaxl_I-R7EX7jPxWP-1" target="-XtXaxl_I-R7EX7jPxWP-2">
          <mxGeometry relative="1" as="geometry">
            <mxPoint x="320" y="240" as="targetPoint" />
            <Array as="points">
              <mxPoint x="140" y="280" />
              <mxPoint x="140" y="200" />
            </Array>
          </mxGeometry>
        </mxCell>
        <mxCell id="-XtXaxl_I-R7EX7jPxWP-1" value="Employees Work Overtime&lt;div&gt;(Issue 3.1.6)&lt;/div&gt;" style="rounded=0;whiteSpace=wrap;html=1;" parent="1" vertex="1">
          <mxGeometry y="240" width="120" height="80" as="geometry" />
        </mxCell>
        <mxCell id="-XtXaxl_I-R7EX7jPxWP-12" style="edgeStyle=orthogonalEdgeStyle;rounded=0;orthogonalLoop=1;jettySize=auto;html=1;entryX=0;entryY=0.5;entryDx=0;entryDy=0;" parent="1" source="-XtXaxl_I-R7EX7jPxWP-2" edge="1" target="-XtXaxl_I-R7EX7jPxWP-13">
          <mxGeometry relative="1" as="geometry">
            <mxPoint x="321" y="240" as="targetPoint" />
          </mxGeometry>
        </mxCell>
        <mxCell id="-XtXaxl_I-R7EX7jPxWP-2" value="Inspectors Work Overtime" style="rounded=0;whiteSpace=wrap;html=1;" parent="1" vertex="1">
          <mxGeometry x="320" y="160" width="120" height="80" as="geometry" />
        </mxCell>
        <mxCell id="-XtXaxl_I-R7EX7jPxWP-8" style="edgeStyle=orthogonalEdgeStyle;rounded=0;orthogonalLoop=1;jettySize=auto;html=1;entryX=0;entryY=0.5;entryDx=0;entryDy=0;" parent="1" source="-XtXaxl_I-R7EX7jPxWP-3" target="-XtXaxl_I-R7EX7jPxWP-7" edge="1">
          <mxGeometry relative="1" as="geometry" />
        </mxCell>
        <mxCell id="mCd2HoaMfWd7tNMFFsN8-1" style="edgeStyle=orthogonalEdgeStyle;rounded=0;orthogonalLoop=1;jettySize=auto;html=1;entryX=0;entryY=0.5;entryDx=0;entryDy=0;" edge="1" parent="1" source="-XtXaxl_I-R7EX7jPxWP-3" target="-XtXaxl_I-R7EX7jPxWP-2">
          <mxGeometry relative="1" as="geometry" />
        </mxCell>
        <mxCell id="-XtXaxl_I-R7EX7jPxWP-3" value="Clerks Work Overtime" style="rounded=0;whiteSpace=wrap;html=1;" parent="1" vertex="1">
          <mxGeometry x="160" y="280" width="120" height="80" as="geometry" />
        </mxCell>
        <mxCell id="-XtXaxl_I-R7EX7jPxWP-7" value="Clerks Must Record Inspection Documents on&amp;nbsp;&lt;span style=&quot;background-color: initial;&quot;&gt;Insp&lt;/span&gt;&lt;span style=&quot;background-color: initial;&quot;&gt;ection Day&lt;/span&gt;" style="rounded=0;whiteSpace=wrap;html=1;" parent="1" vertex="1">
          <mxGeometry x="320" y="320" width="120" height="80" as="geometry" />
        </mxCell>
        <mxCell id="-XtXaxl_I-R7EX7jPxWP-34" style="edgeStyle=orthogonalEdgeStyle;rounded=0;orthogonalLoop=1;jettySize=auto;html=1;exitX=1;exitY=0.5;exitDx=0;exitDy=0;" parent="1" source="-XtXaxl_I-R7EX7jPxWP-13" target="-XtXaxl_I-R7EX7jPxWP-31" edge="1">
          <mxGeometry relative="1" as="geometry" />
        </mxCell>
        <mxCell id="-XtXaxl_I-R7EX7jPxWP-35" style="edgeStyle=orthogonalEdgeStyle;rounded=0;orthogonalLoop=1;jettySize=auto;html=1;entryX=0;entryY=0.5;entryDx=0;entryDy=0;" parent="1" source="-XtXaxl_I-R7EX7jPxWP-13" target="-XtXaxl_I-R7EX7jPxWP-33" edge="1">
          <mxGeometry relative="1" as="geometry" />
        </mxCell>
        <mxCell id="-XtXaxl_I-R7EX7jPxWP-36" style="edgeStyle=orthogonalEdgeStyle;rounded=0;orthogonalLoop=1;jettySize=auto;html=1;entryX=0;entryY=0.5;entryDx=0;entryDy=0;" parent="1" source="-XtXaxl_I-R7EX7jPxWP-13" target="-XtXaxl_I-R7EX7jPxWP-32" edge="1">
          <mxGeometry relative="1" as="geometry" />
        </mxCell>
        <mxCell id="-XtXaxl_I-R7EX7jPxWP-13" value="Bases Take T&lt;span style=&quot;background-color: initial;&quot;&gt;oo Long&lt;/span&gt;" style="rounded=0;whiteSpace=wrap;html=1;" parent="1" vertex="1">
          <mxGeometry x="480" y="160" width="120" height="80" as="geometry" />
        </mxCell>
        <mxCell id="-XtXaxl_I-R7EX7jPxWP-20" style="edgeStyle=orthogonalEdgeStyle;rounded=0;orthogonalLoop=1;jettySize=auto;html=1;exitX=1;exitY=0.5;exitDx=0;exitDy=0;entryX=0;entryY=0.5;entryDx=0;entryDy=0;" parent="1" source="-XtXaxl_I-R7EX7jPxWP-14" target="-XtXaxl_I-R7EX7jPxWP-19" edge="1">
          <mxGeometry relative="1" as="geometry" />
        </mxCell>
        <mxCell id="-XtXaxl_I-R7EX7jPxWP-14" value="Delays in Base 2" style="rounded=0;whiteSpace=wrap;html=1;" parent="1" vertex="1">
          <mxGeometry x="800" y="40" width="120" height="80" as="geometry" />
        </mxCell>
        <mxCell id="-XtXaxl_I-R7EX7jPxWP-26" style="edgeStyle=orthogonalEdgeStyle;rounded=0;orthogonalLoop=1;jettySize=auto;html=1;" parent="1" source="-XtXaxl_I-R7EX7jPxWP-18" target="-XtXaxl_I-R7EX7jPxWP-25" edge="1">
          <mxGeometry relative="1" as="geometry" />
        </mxCell>
        <mxCell id="-XtXaxl_I-R7EX7jPxWP-28" style="edgeStyle=orthogonalEdgeStyle;rounded=0;orthogonalLoop=1;jettySize=auto;html=1;exitX=1;exitY=0.5;exitDx=0;exitDy=0;" parent="1" source="-XtXaxl_I-R7EX7jPxWP-18" target="-XtXaxl_I-R7EX7jPxWP-27" edge="1">
          <mxGeometry relative="1" as="geometry" />
        </mxCell>
        <mxCell id="-XtXaxl_I-R7EX7jPxWP-18" value="Delays in Base 4" style="rounded=0;whiteSpace=wrap;html=1;" parent="1" vertex="1">
          <mxGeometry x="800" y="220" width="120" height="80" as="geometry" />
        </mxCell>
        <mxCell id="-XtXaxl_I-R7EX7jPxWP-23" style="edgeStyle=orthogonalEdgeStyle;rounded=0;orthogonalLoop=1;jettySize=auto;html=1;exitX=1;exitY=0.5;exitDx=0;exitDy=0;entryX=0;entryY=0.5;entryDx=0;entryDy=0;" parent="1" source="-XtXaxl_I-R7EX7jPxWP-19" target="-XtXaxl_I-R7EX7jPxWP-21" edge="1">
          <mxGeometry relative="1" as="geometry" />
        </mxCell>
        <mxCell id="-XtXaxl_I-R7EX7jPxWP-24" style="edgeStyle=orthogonalEdgeStyle;rounded=0;orthogonalLoop=1;jettySize=auto;html=1;exitX=1;exitY=0.5;exitDx=0;exitDy=0;entryX=0;entryY=0.5;entryDx=0;entryDy=0;" parent="1" source="-XtXaxl_I-R7EX7jPxWP-19" target="-XtXaxl_I-R7EX7jPxWP-22" edge="1">
          <mxGeometry relative="1" as="geometry" />
        </mxCell>
        <mxCell id="-XtXaxl_I-R7EX7jPxWP-19" value="Customer Mistakes&lt;div&gt;(Issue 3.1.3)&lt;/div&gt;" style="rounded=0;whiteSpace=wrap;html=1;" parent="1" vertex="1">
          <mxGeometry x="960" y="40" width="120" height="80" as="geometry" />
        </mxCell>
        <mxCell id="-XtXaxl_I-R7EX7jPxWP-21" value="Customers Forget to Leave the Keys on Ignition" style="rounded=0;whiteSpace=wrap;html=1;" parent="1" vertex="1">
          <mxGeometry x="1120" y="-40" width="120" height="80" as="geometry" />
        </mxCell>
        <mxCell id="-XtXaxl_I-R7EX7jPxWP-22" value="Customers Drive Past Base 2" style="rounded=0;whiteSpace=wrap;html=1;" parent="1" vertex="1">
          <mxGeometry x="1120" y="120" width="120" height="80" as="geometry" />
        </mxCell>
        <mxCell id="-XtXaxl_I-R7EX7jPxWP-30" style="edgeStyle=orthogonalEdgeStyle;rounded=0;orthogonalLoop=1;jettySize=auto;html=1;exitX=1;exitY=0.5;exitDx=0;exitDy=0;entryX=0;entryY=0.5;entryDx=0;entryDy=0;" parent="1" source="-XtXaxl_I-R7EX7jPxWP-25" target="-XtXaxl_I-R7EX7jPxWP-29" edge="1">
          <mxGeometry relative="1" as="geometry" />
        </mxCell>
        <mxCell id="-XtXaxl_I-R7EX7jPxWP-25" value="Inadequate Facility for Large Vehicles&lt;div&gt;(Issue 3.1.5)&lt;/div&gt;" style="rounded=0;whiteSpace=wrap;html=1;" parent="1" vertex="1">
          <mxGeometry x="960" y="300" width="120" height="80" as="geometry" />
        </mxCell>
        <mxCell id="-XtXaxl_I-R7EX7jPxWP-27" value="Slow Inspection Process" style="rounded=0;whiteSpace=wrap;html=1;" parent="1" vertex="1">
          <mxGeometry x="960" y="140" width="120" height="80" as="geometry" />
        </mxCell>
        <mxCell id="-XtXaxl_I-R7EX7jPxWP-29" value="Hoists Too Small to Accommodate Some Larger Vehicles" style="rounded=0;whiteSpace=wrap;html=1;" parent="1" vertex="1">
          <mxGeometry x="1120" y="300" width="120" height="80" as="geometry" />
        </mxCell>
        <mxCell id="-XtXaxl_I-R7EX7jPxWP-37" style="edgeStyle=orthogonalEdgeStyle;rounded=0;orthogonalLoop=1;jettySize=auto;html=1;exitX=1;exitY=0.5;exitDx=0;exitDy=0;entryX=0;entryY=0.5;entryDx=0;entryDy=0;" parent="1" source="-XtXaxl_I-R7EX7jPxWP-31" target="-XtXaxl_I-R7EX7jPxWP-18" edge="1">
          <mxGeometry relative="1" as="geometry" />
        </mxCell>
        <mxCell id="-XtXaxl_I-R7EX7jPxWP-31" value="Slow Inspection at Base 3&lt;div&gt;(Issue 3.1.4)&lt;/div&gt;" style="rounded=0;whiteSpace=wrap;html=1;" parent="1" vertex="1">
          <mxGeometry x="640" y="160" width="120" height="80" as="geometry" />
        </mxCell>
        <mxCell id="-XtXaxl_I-R7EX7jPxWP-38" style="edgeStyle=orthogonalEdgeStyle;rounded=0;orthogonalLoop=1;jettySize=auto;html=1;exitX=1;exitY=0.5;exitDx=0;exitDy=0;entryX=0;entryY=0.5;entryDx=0;entryDy=0;" parent="1" source="-XtXaxl_I-R7EX7jPxWP-32" target="-XtXaxl_I-R7EX7jPxWP-18" edge="1">
          <mxGeometry relative="1" as="geometry">
            <mxPoint x="840" y="280" as="targetPoint" />
            <Array as="points">
              <mxPoint x="780" y="320" />
              <mxPoint x="780" y="260" />
            </Array>
          </mxGeometry>
        </mxCell>
        <mxCell id="-XtXaxl_I-R7EX7jPxWP-32" value="Slow Inspection at Base 4" style="rounded=0;whiteSpace=wrap;html=1;" parent="1" vertex="1">
          <mxGeometry x="640" y="280" width="120" height="80" as="geometry" />
        </mxCell>
        <mxCell id="-XtXaxl_I-R7EX7jPxWP-39" style="edgeStyle=orthogonalEdgeStyle;rounded=0;orthogonalLoop=1;jettySize=auto;html=1;exitX=1;exitY=0.5;exitDx=0;exitDy=0;entryX=0;entryY=0.5;entryDx=0;entryDy=0;" parent="1" source="-XtXaxl_I-R7EX7jPxWP-33" target="-XtXaxl_I-R7EX7jPxWP-14" edge="1">
          <mxGeometry relative="1" as="geometry" />
        </mxCell>
        <mxCell id="-XtXaxl_I-R7EX7jPxWP-33" value="Slow Inspection at Base 2" style="rounded=0;whiteSpace=wrap;html=1;" parent="1" vertex="1">
          <mxGeometry x="640" y="40" width="120" height="80" as="geometry" />
        </mxCell>
      </root>
    </mxGraphModel>
  </diagram>
</mxfile>
